<svg width="106" height="24" viewBox="0 0 106 24" fill="none" xmlns="http://www.w3.org/2000/svg">
<g clip-path="url(#clip0_11_91)">
<path fill-rule="evenodd" clip-rule="evenodd" d="M8 5.33333H14V9.77777V14.2222H8V18.6667H2V14.2222V9.77777H8V5.33333V5.33333Z" fill="white"/>
</g>
<path d="M33.26 18.5V5.54H38.399C39.275 5.54 39.992 5.717 40.55 6.071C41.114 6.419 41.531 6.866 41.801 7.412C42.077 7.958 42.215 8.522 42.215 9.104C42.215 9.818 42.044 10.424 41.702 10.922C41.366 11.42 40.907 11.756 40.325 11.93V11.48C41.141 11.666 41.759 12.053 42.179 12.641C42.605 13.229 42.818 13.898 42.818 14.648C42.818 15.416 42.671 16.088 42.377 16.664C42.083 17.24 41.645 17.69 41.063 18.014C40.487 18.338 39.773 18.5 38.921 18.5H33.26ZM35.456 16.457H38.651C39.029 16.457 39.368 16.382 39.668 16.232C39.968 16.076 40.202 15.86 40.37 15.584C40.544 15.302 40.631 14.969 40.631 14.585C40.631 14.237 40.556 13.925 40.406 13.649C40.256 13.373 40.037 13.154 39.749 12.992C39.461 12.824 39.116 12.74 38.714 12.74H35.456V16.457ZM35.456 10.715H38.372C38.684 10.715 38.963 10.655 39.209 10.535C39.455 10.415 39.65 10.238 39.794 10.004C39.938 9.77 40.01 9.482 40.01 9.14C40.01 8.69 39.866 8.315 39.578 8.015C39.29 7.715 38.888 7.565 38.372 7.565H35.456V10.715ZM44.7955 18.5V5.27H46.9645V18.5H44.7955ZM53.9534 18.77C52.9814 18.77 52.1324 18.551 51.4064 18.113C50.6804 17.675 50.1164 17.072 49.7144 16.304C49.3184 15.53 49.1204 14.642 49.1204 13.64C49.1204 12.62 49.3244 11.726 49.7324 10.958C50.1404 10.19 50.7074 9.59 51.4334 9.158C52.1594 8.726 52.9994 8.51 53.9534 8.51C54.9314 8.51 55.7834 8.729 56.5094 9.167C57.2354 9.605 57.7994 10.211 58.2014 10.985C58.6034 11.753 58.8044 12.638 58.8044 13.64C58.8044 14.648 58.6004 15.539 58.1924 16.313C57.7904 17.081 57.2264 17.684 56.5004 18.122C55.7744 18.554 54.9254 18.77 53.9534 18.77ZM53.9534 16.736C54.8174 16.736 55.4594 16.448 55.8794 15.872C56.2994 15.296 56.5094 14.552 56.5094 13.64C56.5094 12.698 56.2964 11.948 55.8704 11.39C55.4444 10.826 54.8054 10.544 53.9534 10.544C53.3714 10.544 52.8914 10.676 52.5134 10.94C52.1414 11.198 51.8654 11.561 51.6854 12.029C51.5054 12.491 51.4154 13.028 51.4154 13.64C51.4154 14.582 51.6284 15.335 52.0544 15.899C52.4864 16.457 53.1194 16.736 53.9534 16.736ZM65.0083 18.77C64.0063 18.77 63.1513 18.548 62.4433 18.104C61.7353 17.654 61.1923 17.042 60.8143 16.268C60.4423 15.494 60.2533 14.618 60.2473 13.64C60.2533 12.644 60.4483 11.762 60.8323 10.994C61.2223 10.22 61.7743 9.614 62.4883 9.176C63.2023 8.732 64.0513 8.51 65.0353 8.51C66.1393 8.51 67.0723 8.789 67.8343 9.347C68.6023 9.899 69.1033 10.655 69.3373 11.615L67.1773 12.2C67.0093 11.678 66.7303 11.273 66.3403 10.985C65.9503 10.691 65.5063 10.544 65.0083 10.544C64.4443 10.544 63.9793 10.679 63.6133 10.949C63.2473 11.213 62.9773 11.579 62.8033 12.047C62.6293 12.515 62.5423 13.046 62.5423 13.64C62.5423 14.564 62.7493 15.311 63.1633 15.881C63.5773 16.451 64.1923 16.736 65.0083 16.736C65.5843 16.736 66.0373 16.604 66.3673 16.34C66.7033 16.076 66.9553 15.695 67.1233 15.197L69.3373 15.692C69.0373 16.682 68.5123 17.444 67.7623 17.978C67.0123 18.506 66.0943 18.77 65.0083 18.77ZM71.1229 18.5L71.1409 5.54H73.3369V13.46L76.8919 8.78H79.6009L75.8299 13.64L79.9249 18.5H77.0539L73.3369 13.82V18.5H71.1229ZM83.9404 18.5V7.574H79.7464V5.54H90.3034V7.574H86.1094V18.5H83.9404ZM91.9224 7.304V5.315H94.0914V7.304H91.9224ZM91.9224 18.5V8.78H94.0914V18.5H91.9224ZM95.7073 18.5L99.2623 13.586L95.7793 8.78H98.3353L100.522 11.885L102.673 8.78H105.229L101.746 13.586L105.319 18.5H102.763L100.522 15.287L98.2633 18.5H95.7073Z" fill="white"/>
<defs>
<clipPath id="clip0_11_91">
<rect width="16" height="16" fill="white" transform="translate(0 4)"/>
</clipPath>
</defs>
</svg>
